<svg width="396" height="177" viewBox="0 0 396 177" fill="none" xmlns="http://www.w3.org/2000/svg">
<path d="M0 146C0 144.343 1.34315 143 3 143H39.5C41.1569 143 42.5 144.343 42.5 146V177H0V146Z" fill="#374151"/>
<path d="M50.5 117C50.5 115.343 51.8431 114 53.5 114H90C91.6569 114 93 115.343 93 117V177H50.5V117Z" fill="#374151"/>
<path d="M101 141C101 139.343 102.343 138 104 138H140.5C142.157 138 143.5 139.343 143.5 141V177H101V141Z" fill="#374151"/>
<path d="M151.5 72C151.5 70.3431 152.843 69 154.5 69H191C192.657 69 194 70.3431 194 72V177H151.5V72Z" fill="#374151"/>
<path d="M202 25C202 23.3431 203.343 22 205 22H241.5C243.157 22 244.5 23.3431 244.5 25V177H202V25Z" fill="#374151"/>
<path d="M252.5 103C252.5 101.343 253.843 100 255.5 100H292C293.657 100 295 101.343 295 103V177H252.5V103Z" fill="#374151"/>
<path d="M303 76C303 74.3431 304.343 73 306 73H342.5C344.157 73 345.5 74.3431 345.5 76V177H303V76Z" fill="#374151"/>
<path d="M353.5 121C353.5 119.343 354.843 118 356.5 118H393C394.657 118 396 119.343 396 121V177H353.5V121Z" fill="#374151"/>
</svg>
