<svg width="100" height="100" viewBox="0 0 100 100" fill="none" xmlns="http://www.w3.org/2000/svg">
<path d="M14.8178 97H77.8065L98 47.2353H27.2419L10.2036 89.2256C9.86213 90.0676 9.71811 90.9896 9.78463 91.9079C9.85116 92.8263 10.1261 93.7119 10.5846 94.4843C11.043 95.2567 11.6703 95.8914 12.4096 96.3307C13.1489 96.7701 13.9767 97.0001 14.8178 97Z" fill="#374151"/>
<path d="M18.0135 42.7454C18.8066 40.79 20.1006 39.1286 21.7387 37.9626C23.3767 36.7967 25.2884 36.1762 27.2419 36.1765H92.8709C92.8709 33.2435 91.8071 30.4306 89.9136 28.3567C88.0201 26.2828 85.4519 25.1176 82.7741 25.1176H59.7686L47.6525 7.42353C46.7096 6.05292 45.4896 4.94023 44.0881 4.17274C42.6867 3.40525 41.1419 3.00384 39.5751 3H12.0968C9.41893 3 6.85078 4.16512 4.95727 6.23905C3.06376 8.31299 2 11.1258 2 14.0588V82.2144L18.0135 42.7454Z" fill="#374151"/>
</svg>
